<svg width="121" height="24" viewBox="0 0 121 24" fill="none" xmlns="http://www.w3.org/2000/svg">
<path fill-rule="evenodd" clip-rule="evenodd" d="M2.44625 23.7004H7.34211V11.8485H10.6088L11.0414 7.76488H7.34211L7.34826 5.72082C7.34826 4.65568 7.449 4.08478 8.97686 4.08478H11.019V0H7.75178C3.82748 0 2.44681 1.98082 2.44681 5.31279V7.76544H0V11.8491H2.44625V23.7004ZM46.3355 11.2127C44.6727 11.2127 44.2933 12.1256 44.2933 13.2562V13.8915H48.3754V13.2562C48.3754 12.1256 47.996 11.2127 46.3355 11.2127ZM62.2509 11.6247C61.2525 11.6247 60.5328 11.9521 59.803 12.2857V19.834C60.502 19.9006 60.9027 19.9006 61.5659 19.9006C63.9624 19.9006 64.2909 18.803 64.2909 17.2705V13.6654C64.2909 12.5336 63.9153 11.6247 62.2509 11.6247ZM16.8574 20.4284C15.9261 20.4284 15.5041 19.9638 15.5041 19.0694C15.5041 18.1699 15.9585 17.9774 16.9928 17.9774H19.1771V19.7679C19.1066 19.8003 19.0373 19.8326 18.9688 19.8645C18.3296 20.1626 17.7597 20.4284 16.8574 20.4284ZM77.7327 11.6247C76.0671 11.6247 75.4901 12.5336 75.4901 13.6654V17.7955C75.4901 18.93 76.0671 19.8418 77.7327 19.8418C79.3937 19.8418 79.9752 18.93 79.9752 17.7955V13.6654C79.9746 12.5336 79.3932 11.6247 77.7327 11.6247ZM24.0741 23.7312H19.9937L19.8174 22.6991C17.9543 23.7312 16.2915 23.8986 15.1946 23.8986C12.2021 23.8986 10.6094 21.8993 10.6094 19.1343C10.6094 15.8723 12.468 14.7081 15.7929 14.7081H19.1771V14.0029C19.1771 12.3377 18.9863 11.8491 16.4259 11.8491H12.2396L12.6488 7.76544H17.2245C22.8423 7.76544 24.0741 9.54029 24.0741 14.0359V23.7312ZM33.4595 11.6174C34.6812 11.6174 35.4105 11.7131 37.9496 12.1485V8.16732C35.7255 7.66637 34.2766 7.53484 33.0521 7.53484C27.7958 7.53484 25.7066 10.3043 25.7066 14.3012V17.1619C25.7066 21.1554 27.7958 23.9198 33.0521 23.9198C34.2766 23.9198 35.7255 23.7889 37.9496 23.2902V19.3067C35.4105 19.7438 34.6812 19.8412 33.4595 19.8412C31.2651 19.8412 30.6019 19.3548 30.6019 17.491V13.9654C30.6019 12.1015 31.2651 11.6174 33.4595 11.6174ZM53.2707 17.1619H44.2927V17.491C44.2927 19.3548 44.9565 19.8412 47.1503 19.8412C49.1226 19.8412 50.3264 19.7438 52.8611 19.3067V23.2902C50.4165 23.7889 49.1427 23.9198 46.7446 23.9198C41.4878 23.9198 39.3974 21.1554 39.3974 17.1619V13.8909C39.3974 10.3966 40.9482 7.53484 46.3349 7.53484C51.7216 7.53484 53.2707 10.3636 53.2707 13.8909V17.1619ZM61.4003 23.9126C68.0825 23.9126 69.1856 21.0972 69.1856 17.2374H69.1851V13.2568C69.1851 9.73003 68.3696 7.5354 63.4749 7.5354C62.2291 7.5354 60.8602 7.73522 59.8024 8.12814V0.410269L54.9083 1.22689V23.2907C57.5717 23.7004 58.987 23.9126 61.4003 23.9126ZM84.8744 17.3214C84.8744 20.6511 83.4999 23.8807 77.7489 23.8807C71.9951 23.8807 70.5948 20.6511 70.5948 17.3214V14.1064C70.5948 10.775 71.9951 7.54492 77.7489 7.54492C83.4999 7.54492 84.8744 10.775 84.8744 14.1064V17.3214ZM93.4265 23.8807C99.1764 23.8807 100.553 20.6511 100.553 17.3214V14.1064C100.553 10.775 99.1764 7.54492 93.4265 7.54492C87.6727 7.54492 86.2724 10.775 86.2724 14.1064V17.3214C86.2724 20.6511 87.6727 23.8807 93.4265 23.8807ZM116.642 23.7004H111.337L106.85 16.2098V23.7004H101.955V1.22633L106.85 0.409709V14.8777L111.337 7.76544H116.642L111.744 15.527L116.642 23.7004ZM91.17 13.6654C91.17 12.5336 91.747 11.6247 93.4097 11.6247C95.0702 11.6247 95.6578 12.5336 95.6578 13.6654V17.7955C95.6578 18.93 95.0702 19.8418 93.4097 19.8418C91.747 19.8418 91.17 18.93 91.17 17.7955V13.6654ZM119.436 20.9052C120.261 20.9052 120.917 21.5775 120.917 22.417C120.917 23.2695 120.26 23.9344 119.43 23.9344C118.604 23.9344 117.934 23.2695 117.934 22.417C117.934 21.5775 118.604 20.9052 119.43 20.9052H119.436ZM118.223 22.417C118.223 21.7118 118.766 21.1403 119.43 21.1403H119.436C120.107 21.1403 120.642 21.7123 120.642 22.4237C120.642 23.1351 120.107 23.706 119.436 23.6993C118.767 23.6993 118.223 23.1351 118.223 22.417ZM119.149 23.2969H118.88V21.6099L118.893 21.6081C119.03 21.5891 119.162 21.5707 119.357 21.5707C119.612 21.5707 119.779 21.6245 119.881 21.6978C119.98 21.7722 120.034 21.8859 120.034 22.0465C120.034 22.2693 119.887 22.403 119.706 22.4573V22.4702C119.853 22.4976 119.954 22.6308 119.988 22.8788C120.027 23.1413 120.068 23.2415 120.094 23.2963H119.813C119.773 23.2415 119.732 23.0876 119.698 22.8654C119.659 22.651 119.551 22.5704 119.336 22.5704H119.149V23.2969H119.149ZM119.344 22.3633H119.149V21.7913C119.195 21.7851 119.256 21.7784 119.344 21.7784C119.645 21.7784 119.752 21.9256 119.752 22.0734C119.752 22.2821 119.564 22.3633 119.344 22.3633Z" fill="white"/>
</svg>
